<mxfile host="app.diagrams.net" agent="Mozilla/5.0 (Macintosh; Intel Mac OS X 10_15_7) AppleWebKit/537.36 (KHTML, like Gecko) Chrome/132.0.0.0 Safari/537.36" version="26.0.13">
  <diagram name="Page-1" id="m4fn-8FMUJ5-b5blcoWq">
    <mxGraphModel dx="794" dy="481" grid="1" gridSize="10" guides="1" tooltips="1" connect="1" arrows="1" fold="1" page="1" pageScale="1" pageWidth="850" pageHeight="1100" math="0" shadow="0">
      <root>
        <mxCell id="0" />
        <mxCell id="1" parent="0" />
        <mxCell id="y2pff58EXzUeSSI969ZE-7" value="" style="swimlane;startSize=0;" vertex="1" parent="1">
          <mxGeometry x="310" y="160" width="200" height="200" as="geometry" />
        </mxCell>
        <mxCell id="y2pff58EXzUeSSI969ZE-14" value="GET BALANCE" style="rounded=1;whiteSpace=wrap;html=1;" vertex="1" parent="y2pff58EXzUeSSI969ZE-7">
          <mxGeometry x="40" y="20" width="130" height="60" as="geometry" />
        </mxCell>
        <mxCell id="y2pff58EXzUeSSI969ZE-17" value="UPDATE" style="rounded=1;whiteSpace=wrap;html=1;" vertex="1" parent="y2pff58EXzUeSSI969ZE-7">
          <mxGeometry x="40" y="110" width="130" height="60" as="geometry" />
        </mxCell>
        <mxCell id="y2pff58EXzUeSSI969ZE-8" value="Server" style="text;html=1;align=center;verticalAlign=middle;whiteSpace=wrap;rounded=0;" vertex="1" parent="y2pff58EXzUeSSI969ZE-7">
          <mxGeometry x="70" y="80" width="60" height="30" as="geometry" />
        </mxCell>
        <mxCell id="y2pff58EXzUeSSI969ZE-11" style="edgeStyle=orthogonalEdgeStyle;rounded=0;orthogonalLoop=1;jettySize=auto;html=1;entryX=0;entryY=0.5;entryDx=0;entryDy=0;exitX=0.75;exitY=0.1;exitDx=0;exitDy=0;exitPerimeter=0;" edge="1" parent="1">
          <mxGeometry relative="1" as="geometry">
            <mxPoint x="91.25" y="56" as="sourcePoint" />
            <mxPoint x="348.75" y="210" as="targetPoint" />
            <Array as="points">
              <mxPoint x="248.75" y="56" />
              <mxPoint x="248.75" y="210" />
            </Array>
          </mxGeometry>
        </mxCell>
        <mxCell id="y2pff58EXzUeSSI969ZE-12" value="(GET/ api/v1/scoreboard/top)" style="edgeLabel;html=1;align=center;verticalAlign=middle;resizable=0;points=[];" vertex="1" connectable="0" parent="y2pff58EXzUeSSI969ZE-11">
          <mxGeometry x="-0.1176" relative="1" as="geometry">
            <mxPoint x="-69" y="-40" as="offset" />
          </mxGeometry>
        </mxCell>
        <mxCell id="y2pff58EXzUeSSI969ZE-9" value="Actor" style="shape=umlActor;verticalLabelPosition=bottom;verticalAlign=top;html=1;outlineConnect=0;" vertex="1" parent="1">
          <mxGeometry x="70" y="50" width="30" height="60" as="geometry" />
        </mxCell>
        <mxCell id="y2pff58EXzUeSSI969ZE-36" style="edgeStyle=orthogonalEdgeStyle;rounded=0;orthogonalLoop=1;jettySize=auto;html=1;" edge="1" parent="1" source="y2pff58EXzUeSSI969ZE-10">
          <mxGeometry relative="1" as="geometry">
            <mxPoint x="350" y="310" as="targetPoint" />
            <Array as="points">
              <mxPoint x="225" y="360" />
              <mxPoint x="225" y="330" />
              <mxPoint x="330" y="330" />
              <mxPoint x="330" y="310" />
            </Array>
          </mxGeometry>
        </mxCell>
        <mxCell id="y2pff58EXzUeSSI969ZE-37" value="&lt;span style=&quot;color: rgba(0, 0, 0, 0); font-family: monospace; font-size: 0px; text-align: start; background-color: rgb(251, 251, 251);&quot;&gt;%3CmxGraphModel%3E%3Croot%3E%3CmxCell%20id%3D%220%22%2F%3E%3CmxCell%20id%3D%221%22%20parent%3D%220%22%2F%3E%3CmxCell%20id%3D%222%22%20value%3D%22(GET%2F%20api%2Fv1%2Fscoreboard%2Ftop)%22%20style%3D%22edgeLabel%3Bhtml%3D1%3Balign%3Dcenter%3BverticalAlign%3Dmiddle%3Bresizable%3D0%3Bpoints%3D%5B%5D%3B%22%20vertex%3D%221%22%20connectable%3D%220%22%20parent%3D%221%22%3E%3CmxGeometry%20x%3D%22225%22%20y%3D%22187%22%20as%3D%22geometry%22%2F%3E%3C%2FmxCell%3E%3C%2Froot%3E%3C%2FmxGraphModel%3E&lt;/span&gt;" style="edgeLabel;html=1;align=center;verticalAlign=middle;resizable=0;points=[];" vertex="1" connectable="0" parent="y2pff58EXzUeSSI969ZE-36">
          <mxGeometry x="-0.3923" y="4" relative="1" as="geometry">
            <mxPoint as="offset" />
          </mxGeometry>
        </mxCell>
        <mxCell id="y2pff58EXzUeSSI969ZE-38" value="&lt;span style=&quot;color: rgba(0, 0, 0, 0); font-family: monospace; font-size: 0px; text-align: start; background-color: rgb(251, 251, 251);&quot;&gt;%3CmxGraphModel%3E%3Croot%3E%3CmxCell%20id%3D%220%22%2F%3E%3CmxCell%20id%3D%221%22%20parent%3D%220%22%2F%3E%3CmxCell%20id%3D%222%22%20value%3D%22(GET%2F%20api%2Fv1%2Fscoreboard%2Ftop)%22%20style%3D%22edgeLabel%3Bhtml%3D1%3Balign%3Dcenter%3BverticalAlign%3Dmiddle%3Bresizable%3D0%3Bpoints%3D%5B%5D%3B%22%20vertex%3D%221%22%20connectable%3D%220%22%20parent%3D%221%22%3E%3CmxGeometry%20x%3D%22225%22%20y%3D%22187%22%20as%3D%22geometry%22%2F%3E%3C%2FmxCell%3E%3C%2Froot%3E%3C%2FmxGraphModel%3E&lt;/span&gt;" style="edgeLabel;html=1;align=center;verticalAlign=middle;resizable=0;points=[];" vertex="1" connectable="0" parent="y2pff58EXzUeSSI969ZE-36">
          <mxGeometry x="-0.1769" y="-3" relative="1" as="geometry">
            <mxPoint as="offset" />
          </mxGeometry>
        </mxCell>
        <mxCell id="y2pff58EXzUeSSI969ZE-39" value="(POST /api/v1/scoreboard/update)" style="edgeLabel;html=1;align=center;verticalAlign=middle;resizable=0;points=[];" vertex="1" connectable="0" parent="y2pff58EXzUeSSI969ZE-36">
          <mxGeometry x="-0.0867" relative="1" as="geometry">
            <mxPoint x="-25" y="20" as="offset" />
          </mxGeometry>
        </mxCell>
        <mxCell id="y2pff58EXzUeSSI969ZE-10" value="Actor" style="shape=umlActor;verticalLabelPosition=bottom;verticalAlign=top;html=1;outlineConnect=0;" vertex="1" parent="1">
          <mxGeometry x="70" y="340" width="30" height="60" as="geometry" />
        </mxCell>
        <mxCell id="y2pff58EXzUeSSI969ZE-23" value="Caching&lt;br&gt;Server&lt;br&gt;(Redis)" style="shape=cylinder3;whiteSpace=wrap;html=1;boundedLbl=1;backgroundOutline=1;size=15;" vertex="1" parent="1">
          <mxGeometry x="580" y="50" width="60" height="80" as="geometry" />
        </mxCell>
        <mxCell id="y2pff58EXzUeSSI969ZE-51" value="" style="endArrow=block;dashed=1;endFill=0;endSize=12;html=1;rounded=0;entryX=0;entryY=1;entryDx=0;entryDy=-15;entryPerimeter=0;" edge="1" parent="1" target="y2pff58EXzUeSSI969ZE-23">
          <mxGeometry width="160" relative="1" as="geometry">
            <mxPoint x="480" y="210" as="sourcePoint" />
            <mxPoint x="640" y="210" as="targetPoint" />
          </mxGeometry>
        </mxCell>
        <mxCell id="y2pff58EXzUeSSI969ZE-52" value="Data Not Caching" style="endArrow=open;endSize=12;dashed=1;html=1;rounded=0;entryX=0.5;entryY=0;entryDx=0;entryDy=0;exitX=1;exitY=0.5;exitDx=0;exitDy=0;" edge="1" parent="1" source="y2pff58EXzUeSSI969ZE-14" target="y2pff58EXzUeSSI969ZE-54">
          <mxGeometry x="0.7212" y="16" width="160" relative="1" as="geometry">
            <mxPoint x="490" y="210" as="sourcePoint" />
            <mxPoint x="670" y="242.5" as="targetPoint" />
            <mxPoint as="offset" />
          </mxGeometry>
        </mxCell>
        <mxCell id="y2pff58EXzUeSSI969ZE-53" value="" style="html=1;verticalAlign=bottom;endArrow=open;dashed=1;endSize=8;curved=0;rounded=0;entryX=0.5;entryY=0.5;entryDx=0;entryDy=0;entryPerimeter=0;" edge="1" parent="1" target="y2pff58EXzUeSSI969ZE-9">
          <mxGeometry relative="1" as="geometry">
            <mxPoint x="350" y="210" as="sourcePoint" />
            <mxPoint x="100" y="70" as="targetPoint" />
          </mxGeometry>
        </mxCell>
        <mxCell id="y2pff58EXzUeSSI969ZE-70" value="Return Data" style="edgeLabel;html=1;align=center;verticalAlign=middle;resizable=0;points=[];" vertex="1" connectable="0" parent="y2pff58EXzUeSSI969ZE-53">
          <mxGeometry x="0.1669" relative="1" as="geometry">
            <mxPoint x="-65" y="-39" as="offset" />
          </mxGeometry>
        </mxCell>
        <mxCell id="y2pff58EXzUeSSI969ZE-54" value="Database&lt;br&gt;(MySQL)" style="shape=datastore;whiteSpace=wrap;html=1;" vertex="1" parent="1">
          <mxGeometry x="660" y="240" width="80" height="70" as="geometry" />
        </mxCell>
        <mxCell id="y2pff58EXzUeSSI969ZE-55" value="Socket" style="strokeWidth=2;html=1;shape=mxgraph.flowchart.direct_data;whiteSpace=wrap;" vertex="1" parent="1">
          <mxGeometry x="170" y="220" width="100" height="60" as="geometry" />
        </mxCell>
        <mxCell id="y2pff58EXzUeSSI969ZE-59" value="data" style="html=1;verticalAlign=bottom;endArrow=open;dashed=1;endSize=8;curved=0;rounded=0;exitX=0;exitY=0.25;exitDx=0;exitDy=0;entryX=1.04;entryY=0.617;entryDx=0;entryDy=0;entryPerimeter=0;" edge="1" parent="1" source="y2pff58EXzUeSSI969ZE-17" target="y2pff58EXzUeSSI969ZE-55">
          <mxGeometry x="-0.0096" relative="1" as="geometry">
            <mxPoint x="480" y="390" as="sourcePoint" />
            <mxPoint x="400" y="390" as="targetPoint" />
            <mxPoint as="offset" />
          </mxGeometry>
        </mxCell>
        <mxCell id="y2pff58EXzUeSSI969ZE-60" value="" style="endArrow=block;dashed=1;endFill=0;endSize=12;html=1;rounded=0;entryX=0.5;entryY=1;entryDx=0;entryDy=0;entryPerimeter=0;" edge="1" parent="1" target="y2pff58EXzUeSSI969ZE-23">
          <mxGeometry width="160" relative="1" as="geometry">
            <mxPoint x="480" y="295" as="sourcePoint" />
            <mxPoint x="580" y="180" as="targetPoint" />
          </mxGeometry>
        </mxCell>
        <mxCell id="y2pff58EXzUeSSI969ZE-61" value="Update Data" style="edgeLabel;html=1;align=center;verticalAlign=middle;resizable=0;points=[];" vertex="1" connectable="0" parent="y2pff58EXzUeSSI969ZE-60">
          <mxGeometry x="-0.4803" y="-1" relative="1" as="geometry">
            <mxPoint x="75" y="-92" as="offset" />
          </mxGeometry>
        </mxCell>
        <mxCell id="y2pff58EXzUeSSI969ZE-63" value="" style="endArrow=block;dashed=1;endFill=0;endSize=12;html=1;rounded=0;exitX=1;exitY=0.5;exitDx=0;exitDy=0;entryX=0;entryY=0.5;entryDx=0;entryDy=0;" edge="1" parent="1" source="y2pff58EXzUeSSI969ZE-17" target="y2pff58EXzUeSSI969ZE-54">
          <mxGeometry width="160" relative="1" as="geometry">
            <mxPoint x="490" y="305" as="sourcePoint" />
            <mxPoint x="590" y="190" as="targetPoint" />
          </mxGeometry>
        </mxCell>
        <mxCell id="y2pff58EXzUeSSI969ZE-64" value="Update Data" style="edgeLabel;html=1;align=center;verticalAlign=middle;resizable=0;points=[];" vertex="1" connectable="0" parent="y2pff58EXzUeSSI969ZE-63">
          <mxGeometry x="-0.4803" y="-1" relative="1" as="geometry">
            <mxPoint x="83" y="-15" as="offset" />
          </mxGeometry>
        </mxCell>
        <mxCell id="y2pff58EXzUeSSI969ZE-67" value="emit" style="html=1;verticalAlign=bottom;endArrow=open;dashed=1;endSize=8;curved=0;rounded=0;exitX=-0.01;exitY=0.4;exitDx=0;exitDy=0;exitPerimeter=0;" edge="1" parent="1" source="y2pff58EXzUeSSI969ZE-55" target="y2pff58EXzUeSSI969ZE-9">
          <mxGeometry relative="1" as="geometry">
            <mxPoint x="420" y="270" as="sourcePoint" />
            <mxPoint x="100" y="70" as="targetPoint" />
          </mxGeometry>
        </mxCell>
        <mxCell id="y2pff58EXzUeSSI969ZE-72" value="emit" style="html=1;verticalAlign=bottom;endArrow=open;dashed=1;endSize=8;curved=0;rounded=0;exitX=0;exitY=0.5;exitDx=0;exitDy=0;exitPerimeter=0;entryX=0.5;entryY=0;entryDx=0;entryDy=0;entryPerimeter=0;" edge="1" parent="1" source="y2pff58EXzUeSSI969ZE-55" target="y2pff58EXzUeSSI969ZE-10">
          <mxGeometry relative="1" as="geometry">
            <mxPoint x="179" y="254" as="sourcePoint" />
            <mxPoint x="110" y="119" as="targetPoint" />
          </mxGeometry>
        </mxCell>
        <mxCell id="y2pff58EXzUeSSI969ZE-73" value="" style="endArrow=block;dashed=1;endFill=0;endSize=12;html=1;rounded=0;" edge="1" parent="1">
          <mxGeometry width="160" relative="1" as="geometry">
            <mxPoint x="40" y="560" as="sourcePoint" />
            <mxPoint x="200" y="560" as="targetPoint" />
          </mxGeometry>
        </mxCell>
        <mxCell id="y2pff58EXzUeSSI969ZE-74" value="Action of server" style="text;html=1;align=center;verticalAlign=middle;resizable=0;points=[];autosize=1;strokeColor=none;fillColor=none;" vertex="1" parent="1">
          <mxGeometry x="60" y="530" width="110" height="30" as="geometry" />
        </mxCell>
        <mxCell id="y2pff58EXzUeSSI969ZE-77" value="" style="endArrow=classic;html=1;rounded=0;" edge="1" parent="1">
          <mxGeometry width="50" height="50" relative="1" as="geometry">
            <mxPoint x="40" y="610" as="sourcePoint" />
            <mxPoint x="200" y="610" as="targetPoint" />
          </mxGeometry>
        </mxCell>
        <mxCell id="y2pff58EXzUeSSI969ZE-79" value="Action of user" style="text;html=1;align=center;verticalAlign=middle;resizable=0;points=[];autosize=1;strokeColor=none;fillColor=none;" vertex="1" parent="1">
          <mxGeometry x="60" y="580" width="100" height="30" as="geometry" />
        </mxCell>
        <mxCell id="y2pff58EXzUeSSI969ZE-81" value="&lt;b&gt;&lt;u&gt;&lt;font style=&quot;font-size: 14px;&quot;&gt;Note&lt;/font&gt;&lt;/u&gt;&lt;/b&gt;" style="text;html=1;align=center;verticalAlign=middle;whiteSpace=wrap;rounded=0;" vertex="1" parent="1">
          <mxGeometry x="60" y="500" width="100" height="30" as="geometry" />
        </mxCell>
      </root>
    </mxGraphModel>
  </diagram>
</mxfile>
